<svg width="24" height="24" viewBox="0 0 24 24" fill="none" xmlns="http://www.w3.org/2000/svg">
<path d="M11.2893 12.886V16.2502C11.2893 16.4729 11.3642 16.6596 11.5138 16.8102C11.6637 16.9607 11.8523 17.036 12.0796 17.036C12.3068 17.036 12.4938 16.9616 12.6406 16.8127C12.7874 16.6637 12.8608 16.4757 12.8608 16.2487V12.886H16.2501C16.4728 12.886 16.6594 12.8111 16.8101 12.6615C16.9606 12.5116 17.0358 12.3231 17.0358 12.0957C17.0358 11.8686 16.9614 11.6816 16.8126 11.5347C16.6636 11.3879 16.4756 11.3145 16.2486 11.3145H12.8608V7.75023C12.8608 7.52756 12.786 7.34089 12.6363 7.19023C12.4865 7.03973 12.2979 6.96448 12.0706 6.96448C11.8434 6.96448 11.6564 7.03889 11.5096 7.18773C11.3628 7.33673 11.2893 7.52473 11.2893 7.75173V11.3145H7.75009C7.52742 11.3145 7.34075 11.3893 7.19009 11.539C7.03959 11.6888 6.96434 11.8774 6.96434 12.1047C6.96434 12.3319 7.03875 12.5189 7.18759 12.6657C7.33659 12.8126 7.52459 12.886 7.75159 12.886H11.2893ZM12.0076 22.1497C10.6043 22.1497 9.28725 21.8841 8.05659 21.3527C6.82592 20.8214 5.74959 20.0947 4.82759 19.1727C3.90559 18.2507 3.17892 17.1741 2.64759 15.9427C2.11625 14.7114 1.85059 13.3933 1.85059 11.9885C1.85059 10.5838 2.11625 9.26548 2.64759 8.03348C3.17892 6.80164 3.90525 5.72881 4.82659 4.81498C5.74792 3.90098 6.82442 3.17748 8.05609 2.64448C9.28775 2.11131 10.6062 1.84473 12.0113 1.84473C13.4163 1.84473 14.7351 2.11114 15.9676 2.64398C17.1999 3.17681 18.2728 3.89989 19.1863 4.81323C20.1 5.72656 20.8233 6.80056 21.3561 8.03523C21.8891 9.26989 22.1556 10.5893 22.1556 11.9935C22.1556 13.3975 21.889 14.7147 21.3558 15.9452C20.8228 17.1759 20.0993 18.2505 19.1853 19.169C18.2715 20.0873 17.1976 20.8137 15.9636 21.3482C14.7296 21.8826 13.4109 22.1497 12.0076 22.1497ZM12.0126 20.4465C14.3549 20.4465 16.3462 19.6236 17.9863 17.9777C19.6263 16.3317 20.4463 14.3351 20.4463 11.9877C20.4463 9.64539 19.6278 7.65414 17.9908 6.01398C16.354 4.37398 14.3561 3.55398 11.9971 3.55398C9.66109 3.55398 7.66984 4.37248 6.02334 6.00948C4.377 7.64631 3.55384 9.64423 3.55384 12.0032C3.55384 14.3392 4.37675 16.3305 6.02259 17.977C7.66859 19.6233 9.66525 20.4465 12.0126 20.4465Z" fill="black"/>
</svg>
