<svg aria-hidden="true" style="position: absolute; width: 0; height: 0; overflow: hidden;" version="1.1" xmlns="http://www.w3.org/2000/svg" xmlns:xlink="http://www.w3.org/1999/xlink">
<defs>
<symbol id="Logo" viewBox="0 0 102 32">
<path fill="#33adc1" style="fill: var(--color1, #33adc1)" d="M31.996 15.999c0 8.725-7.073 15.798-15.798 15.798-0.328 0-0.653-0.010-0.975-0.030-1.352-0.082-2.658-0.335-3.897-0.736-0.471-0.152-0.933-0.327-1.384-0.521-5.614-2.423-9.543-8.008-9.543-14.511 0-8.725 7.073-15.798 15.798-15.798s15.798 7.073 15.798 15.798z"></path>
<path fill="#eae0d3" style="fill: var(--color2, #eae0d3)" d="M15.224 31.768c-1.866-0.113-3.645-0.551-5.28-1.257 6.118-8.248-4.473-16.104-4.473-16.104l5.34-1.318c0-0 11.428 6.971 4.414 18.679z"></path>
<path fill="#d6c8b0" style="fill: var(--color3, #d6c8b0)" d="M11.328 31.032c-0.471-0.152-0.933-0.327-1.384-0.521 6.118-8.248-4.473-16.104-4.473-16.104l1.543-0.381c0.374 0.28 0.898 0.644 1.432 1.144 2.786 2.602 6.827 8.139 2.881 15.862z"></path>
<path fill="#eae0d3" style="fill: var(--color2, #eae0d3)" d="M14.622 8.993c0 3.411-2.765 6.176-6.176 6.176s-6.176-2.765-6.176-6.176c0-0.509 0.061-1.004 0.178-1.477s0.287-0.925 0.505-1.348l-2.552-2.552 4.182 0.559-2.145-2.66 4.905 1.401-0.535-2.714c0 0 4.267 2.36 6.294 4.734 0.154 0.176 0.297 0.361 0.43 0.554 0.687 0.996 1.091 2.203 1.091 3.505z"></path>
<path fill="#2f373b" style="fill: var(--color4, #2f373b)" d="M11.764 7.732c0 0.835-0.677 1.513-1.512 1.513s-1.513-0.677-1.513-1.513c0-0.835 0.677-1.513 1.513-1.513s1.512 0.677 1.512 1.513z"></path>
<path fill="#ff648d" style="fill: var(--color5, #ff648d)" d="M25.943 8.732c-0.621 0.324-1.276 0.251-1.801 0.077-0.614-0.203-1.052-0.542-1.052-0.542s-2.212-2.171-0.51-3.116c0.514-0.285 0.93-0.284 1.26-0.142h0.001c0.764 0.328 1.071 1.402 1.071 1.402s0.616-1.597 1.978-1.113c1.362 0.483 0.398 2.731-0.947 3.435z"></path>
<path fill="#ea2f69" style="fill: var(--color6, #ea2f69)" d="M24.142 8.809c-0.614-0.203-1.052-0.542-1.052-0.542s-2.212-2.171-0.51-3.116c0.514-0.285 0.93-0.284 1.26-0.142-0.753-0.042-0.777 2.733 0.302 3.801z"></path>
<path fill="#fff" style="fill: var(--color7, #fff)" d="M11.335 7.249c0 0.261-0.212 0.473-0.473 0.473s-0.473-0.212-0.473-0.473c0-0.261 0.212-0.472 0.473-0.472s0.473 0.212 0.473 0.472z"></path>
<path fill="#ff648d" style="fill: var(--color5, #ff648d)" d="M23.642 9.461c0 2.304-6.271 9.3-2.175 12.199 1.024 0.725 2.154 0.961 3.274 0.908 1.119 0.053 2.25-0.183 3.274-0.908 4.096-2.899-2.175-9.895-2.175-12.199z"></path>
<path fill="#ea2f69" style="fill: var(--color6, #ea2f69)" d="M24.572 22.574c-1.065 0.023-2.132-0.225-3.105-0.913-4.097-2.899 2.175-9.895 2.175-12.199h0.672c0 2.304-2.437 9.3-0.845 12.199 0.346 0.631 0.724 0.892 1.103 0.913z"></path>
<path fill="#ea2f69" style="fill: var(--color6, #ea2f69)" d="M24.572 22.574c0.056-0 0.112-0.003 0.169-0.005-0.056 0.007-0.112 0.009-0.169 0.005z"></path>
<path fill="#ea2f69" style="fill: var(--color6, #ea2f69)" d="M24.912 22.574c-0.056 0.004-0.112 0.002-0.168-0.005 0.056 0.002 0.112 0.005 0.168 0.005z"></path>
<path fill="#ffd62c" style="fill: var(--color8, #ffd62c)" d="M28.865 9.056l-15.63 2.584c0 0-0.546-0.827-0.744-1.924-0.177-0.978-0.077-2.171 0.933-3.181l15.441 2.521z"></path>
<path fill="#ffb92e" style="fill: var(--color9, #ffb92e)" d="M28.865 9.055l-15.63 2.584c0 0-0.546-0.827-0.744-1.924l16.374-0.66z"></path>
<path fill="#d6c8b0" style="fill: var(--color3, #d6c8b0)" d="M8.445 15.168c-3.411 0-6.176-2.765-6.176-6.176 0-0.509 0.061-1.004 0.178-1.477s0.287-0.925 0.505-1.348l-2.552-2.552 4.182 0.559-2.145-2.66 5 2.815c0 0-3.088 1.135-3.088 4.727s4.097 6.113 4.097 6.113z"></path>
<path fill="#000" style="fill: var(--color10, #000)" d="M96.635 22.876c-0.853 0-1.618-0.21-2.295-0.631-0.677-0.432-1.215-1.010-1.612-1.734-0.385-0.736-0.578-1.565-0.578-2.488s0.21-1.752 0.631-2.488c0.432-0.736 1.010-1.314 1.734-1.734 0.736-0.432 1.559-0.648 2.47-0.648s1.728 0.216 2.453 0.648c0.724 0.42 1.296 0.999 1.717 1.734 0.432 0.736 0.648 1.565 0.648 2.488h-0.683c0 0.923-0.199 1.752-0.596 2.488-0.385 0.724-0.917 1.302-1.594 1.734-0.677 0.42-1.442 0.631-2.295 0.631zM96.985 21.299c0.596 0 1.127-0.14 1.594-0.42 0.467-0.292 0.835-0.683 1.104-1.174 0.269-0.502 0.403-1.063 0.403-1.682 0-0.631-0.134-1.191-0.403-1.682-0.269-0.502-0.636-0.893-1.104-1.174-0.467-0.292-0.999-0.438-1.594-0.438-0.584 0-1.115 0.146-1.594 0.438-0.467 0.28-0.841 0.672-1.121 1.174-0.269 0.49-0.403 1.051-0.403 1.682 0 0.619 0.134 1.18 0.403 1.682 0.28 0.491 0.654 0.882 1.121 1.174 0.479 0.28 1.010 0.42 1.594 0.42zM100.909 22.823c-0.257 0-0.473-0.082-0.648-0.245-0.164-0.175-0.245-0.391-0.245-0.648v-2.68l0.333-1.857 1.454 0.631v3.907c0 0.257-0.088 0.473-0.263 0.648-0.164 0.164-0.374 0.245-0.631 0.245z"></path>
<path fill="#000" style="fill: var(--color10, #000)" d="M90.868 22.596c-0.152 0.14-0.368 0.21-0.648 0.21-0.269-0.012-0.479-0.093-0.631-0.245l-4.257-4.572 4.012-4.485c0.152-0.164 0.362-0.257 0.631-0.28 0.28-0.023 0.496 0.035 0.648 0.175 0.175 0.164 0.274 0.35 0.298 0.561 0.023 0.198-0.041 0.38-0.193 0.543l-3.171 3.399 3.364 3.609c0.152 0.152 0.228 0.333 0.228 0.543 0 0.199-0.093 0.38-0.28 0.543zM83.93 22.823c-0.257 0-0.461-0.082-0.613-0.245-0.152-0.175-0.228-0.391-0.228-0.648v-7.813c0-0.269 0.076-0.485 0.228-0.648s0.356-0.245 0.613-0.245c0.269 0 0.485 0.082 0.648 0.245 0.175 0.164 0.263 0.38 0.263 0.648v2.926h2.242v1.647h-2.242v3.241c0 0.257-0.088 0.473-0.263 0.648-0.164 0.164-0.38 0.245-0.648 0.245z"></path>
<path fill="#000" style="fill: var(--color10, #000)" d="M76.537 22.876c-0.969 0-1.834-0.204-2.593-0.613-0.747-0.42-1.337-0.993-1.769-1.717-0.42-0.736-0.631-1.577-0.631-2.523 0-0.958 0.198-1.799 0.596-2.523 0.409-0.736 0.969-1.308 1.682-1.717 0.712-0.42 1.53-0.631 2.453-0.631 0.911 0 1.693 0.204 2.347 0.613 0.654 0.397 1.15 0.952 1.489 1.664 0.35 0.701 0.526 1.512 0.526 2.435 0 0.222-0.076 0.409-0.228 0.561-0.152 0.14-0.345 0.21-0.578 0.21h-7.060v-1.401h7.007l-0.718 0.49c-0.012-0.584-0.128-1.104-0.35-1.559-0.222-0.467-0.537-0.835-0.946-1.104s-0.905-0.403-1.489-0.403c-0.666 0-1.238 0.146-1.717 0.438-0.467 0.292-0.823 0.695-1.069 1.209-0.245 0.502-0.368 1.074-0.368 1.717s0.146 1.215 0.438 1.717c0.292 0.502 0.695 0.899 1.209 1.191s1.104 0.438 1.769 0.438c0.362 0 0.73-0.064 1.104-0.193 0.385-0.14 0.695-0.298 0.929-0.473 0.175-0.129 0.362-0.193 0.561-0.193 0.21-0.012 0.391 0.047 0.543 0.175 0.198 0.175 0.304 0.368 0.315 0.578s-0.082 0.391-0.28 0.543c-0.397 0.315-0.893 0.572-1.489 0.771-0.584 0.198-1.145 0.298-1.682 0.298z"></path>
<path fill="#000" style="fill: var(--color10, #000)" d="M65.168 13.242c0.175 0 0.333 0.047 0.473 0.14s0.251 0.239 0.333 0.438l3.609 7.831c0.105 0.234 0.117 0.444 0.035 0.631-0.082 0.175-0.222 0.309-0.42 0.403-0.257 0.117-0.479 0.146-0.666 0.088s-0.345-0.204-0.473-0.438l-3.293-7.481h0.893l-3.399 7.481c-0.105 0.222-0.263 0.368-0.473 0.438-0.199 0.058-0.42 0.029-0.666-0.088-0.222-0.105-0.38-0.245-0.473-0.42-0.082-0.175-0.064-0.38 0.053-0.613l3.626-7.831c0.175-0.385 0.455-0.578 0.841-0.578z"></path>
<path fill="#000" style="fill: var(--color10, #000)" d="M55.023 22.876c-0.969 0-1.834-0.204-2.593-0.613-0.748-0.42-1.337-0.993-1.769-1.717-0.42-0.736-0.631-1.577-0.631-2.523 0-0.958 0.199-1.799 0.596-2.523 0.409-0.736 0.969-1.308 1.682-1.717 0.712-0.42 1.53-0.631 2.453-0.631 0.911 0 1.693 0.204 2.348 0.613 0.654 0.397 1.15 0.952 1.489 1.664 0.35 0.701 0.526 1.512 0.526 2.435 0 0.222-0.076 0.409-0.228 0.561-0.152 0.14-0.345 0.21-0.578 0.21h-7.060v-1.401h7.007l-0.718 0.49c-0.012-0.584-0.129-1.104-0.35-1.559-0.222-0.467-0.537-0.835-0.946-1.104s-0.905-0.403-1.489-0.403c-0.666 0-1.238 0.146-1.717 0.438-0.467 0.292-0.823 0.695-1.069 1.209-0.245 0.502-0.368 1.074-0.368 1.717s0.146 1.215 0.438 1.717c0.292 0.502 0.695 0.899 1.209 1.191s1.104 0.438 1.769 0.438c0.362 0 0.73-0.064 1.104-0.193 0.385-0.14 0.695-0.298 0.928-0.473 0.175-0.129 0.362-0.193 0.561-0.193 0.21-0.012 0.391 0.047 0.543 0.175 0.199 0.175 0.304 0.368 0.315 0.578s-0.082 0.391-0.28 0.543c-0.397 0.315-0.893 0.572-1.489 0.771-0.584 0.198-1.145 0.298-1.682 0.298z"></path>
<path fill="#000" style="fill: var(--color10, #000)" d="M37.901 22.806c-0.327 0-0.578-0.14-0.753-0.42s-0.193-0.578-0.053-0.893l4.923-11.755c0.175-0.409 0.461-0.613 0.858-0.613 0.42 0 0.707 0.204 0.858 0.613l4.94 11.79c0.129 0.327 0.111 0.625-0.053 0.893-0.152 0.257-0.397 0.385-0.736 0.385-0.175 0-0.345-0.047-0.508-0.14-0.152-0.105-0.263-0.245-0.333-0.42l-4.38-10.791h0.561l-4.485 10.791c-0.082 0.187-0.204 0.327-0.368 0.42-0.152 0.093-0.31 0.14-0.473 0.14z"></path>
</symbol>
</defs>
</svg>
