<svg aria-hidden="true" style="position: absolute; width: 0; height: 0; overflow: hidden;" version="1.1" xmlns="http://www.w3.org/2000/svg" xmlns:xlink="http://www.w3.org/1999/xlink">
<defs>
<symbol id="journey" viewBox="0 0 35 32">
<path d="M29.040 30.62c-1.164 0-2.168-0.346-3.013-1.037s-1.378-1.52-1.597-2.486h-8.31c-1.781 0-3.256-0.585-4.424-1.754s-1.753-2.646-1.753-4.428c0-1.776 0.584-3.249 1.753-4.418s2.643-1.754 4.424-1.754h3.080c1.072 0 1.951-0.343 2.636-1.028s1.027-1.564 1.027-2.637c0-1.073-0.342-1.951-1.027-2.635s-1.563-1.026-2.636-1.026h-8.42c-0.253 0.965-0.795 1.794-1.627 2.486s-1.83 1.037-2.993 1.037c-1.337 0-2.468-0.463-3.393-1.388s-1.387-2.056-1.387-3.393c0-1.337 0.462-2.468 1.387-3.393s2.056-1.387 3.393-1.387c1.163 0 2.161 0.346 2.993 1.037s1.374 1.52 1.627 2.486h8.42c1.779 0 3.254 0.585 4.423 1.754s1.754 2.644 1.754 4.423-0.585 3.254-1.754 4.423c-1.17 1.169-2.644 1.754-4.423 1.754h-3.080c-1.074 0-1.953 0.342-2.637 1.026s-1.026 1.561-1.026 2.632c0 1.077 0.342 1.958 1.026 2.642s1.563 1.026 2.637 1.026h8.31c0.246-0.965 0.785-1.794 1.617-2.486s1.83-1.037 2.993-1.037c1.337 0 2.468 0.463 3.393 1.388s1.387 2.056 1.387 3.393c0 1.337-0.462 2.468-1.387 3.393s-2.056 1.387-3.393 1.387zM6.16 8.32c0.613 0 1.127-0.207 1.54-0.62s0.62-0.927 0.62-1.54c0-0.613-0.207-1.127-0.62-1.54s-0.927-0.62-1.54-0.62c-0.613 0-1.127 0.207-1.54 0.62s-0.62 0.927-0.62 1.54c0 0.613 0.207 1.127 0.62 1.54s0.927 0.62 1.54 0.62z"></path>
</symbol>
<symbol id="profile" viewBox="0 0 32 32">
<path d="M6.653 24.087c1.521-1.055 3.031-1.865 4.528-2.428s3.105-0.846 4.823-0.846c1.718 0 3.333 0.284 4.845 0.852s3.023 1.376 4.534 2.422c1.055-1.315 1.803-2.626 2.242-3.933s0.66-2.692 0.66-4.153c0-3.487-1.175-6.407-3.527-8.758s-5.27-3.527-8.757-3.527c-3.487 0-6.407 1.176-8.759 3.527s-3.528 5.271-3.528 8.758c0 1.461 0.225 2.845 0.674 4.151s1.204 2.618 2.265 3.936zM15.993 17.152c-1.42 0-2.613-0.485-3.578-1.456s-1.449-2.164-1.449-3.58 0.485-2.609 1.455-3.578c0.97-0.969 2.166-1.454 3.585-1.454s2.613 0.487 3.578 1.461c0.966 0.974 1.449 2.168 1.449 3.584s-0.485 2.608-1.455 3.574c-0.97 0.966-2.166 1.449-3.585 1.449zM16.012 30.763c-2.025 0-3.935-0.387-5.73-1.161s-3.364-1.833-4.708-3.176c-1.344-1.343-2.402-2.91-3.176-4.7s-1.161-3.702-1.161-5.737c0-2.028 0.388-3.936 1.163-5.722s1.834-3.351 3.175-4.692c1.341-1.342 2.907-2.401 4.697-3.18s3.703-1.167 5.738-1.167c2.028 0 3.936 0.389 5.722 1.167s3.351 1.838 4.692 3.18c1.342 1.341 2.401 2.906 3.18 4.694s1.167 3.694 1.167 5.719c0 2.025-0.389 3.935-1.167 5.731s-1.838 3.364-3.18 4.706c-1.341 1.342-2.906 2.4-4.694 3.175s-3.694 1.163-5.719 1.163zM16 28.286c1.316 0 2.596-0.188 3.84-0.564s2.484-1.041 3.72-1.993c-1.242-0.867-2.488-1.523-3.738-1.969s-2.524-0.669-3.821-0.669-2.57 0.223-3.817 0.669c-1.247 0.446-2.492 1.103-3.734 1.969 1.236 0.952 2.475 1.617 3.716 1.993s2.519 0.564 3.835 0.564zM16 14.866c0.806 0 1.466-0.255 1.978-0.764s0.769-1.169 0.769-1.979-0.256-1.471-0.769-1.983c-0.513-0.513-1.172-0.769-1.978-0.769s-1.466 0.256-1.979 0.769c-0.513 0.512-0.769 1.174-0.769 1.983s0.256 1.469 0.769 1.979c0.513 0.51 1.172 0.764 1.979 0.764z"></path>
</symbol>
<symbol id="dairy" viewBox="0 0 26 32">
<path d="M3.654 21.749c0.345-0.221 0.719-0.388 1.123-0.503s0.837-0.172 1.3-0.172h1.213v-17.428h-1.213c-0.681 0-1.255 0.235-1.723 0.705s-0.701 1.046-0.701 1.727v15.671zM9.707 21.074h12.83v-17.428h-12.83v17.428zM6.078 30.763c-1.34 0-2.482-0.472-3.425-1.415s-1.415-2.085-1.415-3.425v-19.845c0-1.342 0.472-2.486 1.415-3.431s2.085-1.418 3.425-1.418h16.39c0.69 0 1.276 0.242 1.76 0.726s0.726 1.071 0.726 1.76v18.814c0 0.237-0.061 0.452-0.182 0.645s-0.276 0.328-0.465 0.407c-0.443 0.183-0.791 0.482-1.043 0.897s-0.378 0.893-0.378 1.434 0.126 1.018 0.376 1.43c0.251 0.412 0.598 0.707 1.040 0.886 0.209 0.091 0.371 0.25 0.483 0.477s0.169 0.502 0.169 0.825v0.040c0 0.33-0.117 0.611-0.352 0.844s-0.521 0.349-0.861 0.349h-17.663zM6.061 28.346h15.055c-0.204-0.345-0.364-0.725-0.477-1.142s-0.17-0.844-0.17-1.28c0-0.462 0.057-0.896 0.172-1.3s0.285-0.782 0.512-1.134h-15.088c-0.666 0-1.234 0.235-1.704 0.705s-0.705 1.046-0.705 1.727c0 0.675 0.235 1.248 0.705 1.719s1.037 0.705 1.701 0.705z"></path>
</symbol>
<symbol id="my-day" viewBox="0 0 29 32">
<path d="M9.973 22.234c-0.99 0-1.824-0.342-2.503-1.025s-1.018-1.52-1.018-2.509c0-0.99 0.342-1.824 1.025-2.503s1.52-1.018 2.509-1.018c0.989 0 1.823 0.342 2.502 1.025s1.018 1.52 1.018 2.509c0 0.989-0.342 1.823-1.025 2.502s-1.52 1.018-2.509 1.018zM3.715 30.763c-0.669 0-1.249-0.246-1.74-0.737s-0.737-1.071-0.737-1.74v-22.389c0-0.672 0.246-1.254 0.737-1.747s1.071-0.74 1.74-0.74h2.285v-0.94c0-0.348 0.121-0.642 0.362-0.882s0.535-0.36 0.881-0.36c0.356 0 0.656 0.12 0.901 0.36s0.367 0.534 0.367 0.882v0.94h12.068v-0.94c0-0.348 0.121-0.642 0.363-0.882s0.535-0.36 0.881-0.36c0.356 0 0.657 0.12 0.901 0.36s0.367 0.534 0.367 0.882v0.94h2.285c0.672 0 1.254 0.247 1.747 0.74s0.74 1.075 0.74 1.747v22.389c0 0.669-0.247 1.249-0.74 1.74s-1.075 0.737-1.747 0.737h-21.662zM3.715 28.286h21.662v-15.558h-21.662v15.558zM3.715 10.546h21.662v-4.649h-21.662v4.649z"></path>
</symbol>
<symbol id="exit" viewBox="0 0 30 32">
<path d="M4.086 30.64c-0.736 0-1.374-0.27-1.914-0.811s-0.811-1.178-0.811-1.914v-23.828c0-0.739 0.27-1.379 0.811-1.921s1.178-0.814 1.914-0.814h10.569c0.385 0 0.708 0.133 0.97 0.4s0.393 0.594 0.393 0.98c0 0.386-0.131 0.709-0.393 0.967s-0.585 0.388-0.97 0.388h-10.569v23.828h10.569c0.385 0 0.708 0.132 0.97 0.395s0.393 0.588 0.393 0.975c0 0.387-0.131 0.709-0.393 0.968s-0.585 0.388-0.97 0.388h-10.569zM25.427 17.363h-12.922c-0.385 0-0.708-0.132-0.97-0.395s-0.393-0.588-0.393-0.975c0-0.386 0.131-0.709 0.393-0.968s0.585-0.388 0.97-0.388h12.842l-3.077-3.077c-0.272-0.273-0.401-0.593-0.388-0.96s0.156-0.685 0.428-0.954c0.272-0.275 0.596-0.411 0.972-0.408s0.702 0.141 0.978 0.412l5.435 5.435c0.265 0.274 0.398 0.593 0.398 0.956s-0.133 0.681-0.398 0.953l-5.395 5.395c-0.267 0.272-0.584 0.403-0.951 0.392s-0.692-0.151-0.974-0.423c-0.262-0.272-0.394-0.596-0.398-0.974s0.134-0.703 0.413-0.976l3.037-3.047z"></path>
</symbol>
<symbol id="burger" viewBox="0 0 44 32">
<path d="M0.667 0h42.667v5.333h-42.667v-5.333zM0.667 13.333h42.667v5.333h-42.667v-5.333zM0.667 26.667h42.667v5.333h-42.667v-5.333z"></path>
</symbol>

<symbol id="arrowUp" viewBox="0 0 32 32">
<path stroke-linejoin="miter" stroke-linecap="butt" stroke-miterlimit="4" stroke-width="1.3333" d="M16 11.605c0.125 0 0.227 0.038 0.333 0.145l6.591 6.592c0.109 0.109 0.145 0.208 0.145 0.324s-0.035 0.215-0.145 0.324c-0.104 0.104-0.207 0.145-0.341 0.145s-0.236-0.041-0.34-0.145l-0.001-0.001-6.243-6.207-6.241 6.241c-0.104 0.104-0.192 0.133-0.299 0.129-0.126-0.005-0.234-0.047-0.349-0.161-0.104-0.104-0.145-0.207-0.145-0.341s0.040-0.237 0.145-0.341l6.559-6.559c0.107-0.107 0.207-0.144 0.332-0.145z"></path>
</symbol>

<symbol id="plus" viewBox="0 0 32 32">
<path d="M14.966 17.289v4.893c0 0.324 0.109 0.596 0.327 0.815s0.492 0.328 0.823 0.328c0.33 0 0.602-0.108 0.816-0.325s0.32-0.49 0.32-0.82v-4.891h4.93c0.324 0 0.595-0.109 0.815-0.327s0.328-0.492 0.328-0.823c0-0.33-0.108-0.602-0.325-0.816s-0.49-0.32-0.82-0.32h-4.928v-5.184c0-0.324-0.109-0.595-0.327-0.815s-0.492-0.328-0.823-0.328c-0.33 0-0.602 0.108-0.816 0.325s-0.32 0.49-0.32 0.82v5.182h-5.148c-0.324 0-0.595 0.109-0.815 0.327s-0.328 0.492-0.328 0.823c0 0.33 0.108 0.602 0.325 0.816s0.49 0.32 0.82 0.32h5.146zM16.011 30.763c-2.041 0-3.957-0.386-5.747-1.159s-3.356-1.83-4.697-3.171-2.398-2.907-3.171-4.698c-0.773-1.791-1.159-3.708-1.159-5.752s0.386-3.961 1.159-5.753c0.773-1.792 1.829-3.352 3.169-4.681s2.906-2.382 4.697-3.157c1.791-0.776 3.709-1.163 5.753-1.163s3.962 0.387 5.755 1.163c1.792 0.775 3.353 1.827 4.682 3.155s2.381 2.891 3.156 4.687c0.775 1.796 1.163 3.715 1.163 5.757s-0.388 3.958-1.163 5.748c-0.775 1.79-1.828 3.353-3.157 4.689s-2.891 2.392-4.686 3.17c-1.795 0.777-3.713 1.166-5.754 1.166zM16.018 28.286c3.407 0 6.303-1.197 8.689-3.591s3.578-5.298 3.578-8.713c0-3.407-1.191-6.303-3.572-8.689s-5.287-3.578-8.718-3.578c-3.398 0-6.294 1.191-8.689 3.572s-3.592 5.287-3.592 8.718c0 3.398 1.197 6.294 3.591 8.689s5.298 3.592 8.713 3.592z"></path>
</symbol>
<symbol id="close_btn" viewBox="0 0 32 32">
<path fill="#fff" style="fill: var(--color1, #fff)" stroke-linejoin="miter" stroke-linecap="butt" stroke-miterlimit="4" stroke-width="2.2857" stroke="#000" d="M28.799 2.114c0.376 0 0.609 0.111 0.792 0.295s0.294 0.416 0.295 0.79c0 0.375-0.111 0.609-0.295 0.792l-12.009 12.009 12.009 12.007c0.184 0.184 0.295 0.417 0.295 0.792s-0.111 0.609-0.295 0.792-0.417 0.295-0.792 0.295c-0.375 0-0.609-0.111-0.792-0.295l-12.007-12.009-12.009 12.009c-0.184 0.184-0.417 0.295-0.792 0.295s-0.607-0.111-0.79-0.295c-0.184-0.184-0.295-0.417-0.295-0.792s0.111-0.609 0.295-0.792l12.007-12.007-12.007-12.009c-0.184-0.184-0.295-0.417-0.295-0.792s0.111-0.607 0.295-0.79 0.415-0.294 0.79-0.295c0.375 0 0.609 0.111 0.792 0.295l12.009 12.007 12.007-12.007c0.184-0.184 0.417-0.295 0.792-0.295z"></path>
</symbol>
<symbol id="note" viewBox="0 0 32 32">
<path d="M3.715 30.763c-0.669 0-1.249-0.246-1.74-0.737s-0.737-1.071-0.737-1.74v-21.662c0-0.672 0.246-1.254 0.737-1.747s1.071-0.74 1.74-0.74h11.735c0.416 0 0.728 0.129 0.936 0.387s0.312 0.541 0.312 0.849c0 0.309-0.105 0.595-0.314 0.857s-0.518 0.393-0.924 0.393h-11.744v21.662h21.662v-11.844c0-0.407 0.129-0.715 0.386-0.925s0.541-0.314 0.85-0.314 0.595 0.105 0.857 0.314c0.262 0.209 0.393 0.518 0.393 0.925v11.844c0 0.669-0.247 1.249-0.74 1.74s-1.075 0.737-1.747 0.737h-21.662zM10.078 20.683v-4.060c0-0.341 0.068-0.666 0.204-0.975s0.318-0.578 0.547-0.807l13.045-13.036c0.247-0.247 0.522-0.426 0.823-0.538s0.606-0.167 0.913-0.167c0.301 0 0.607 0.062 0.92 0.185s0.596 0.309 0.852 0.556l2.74 2.768c0.244 0.252 0.429 0.527 0.558 0.826s0.193 0.603 0.193 0.912c0 0.311-0.063 0.626-0.188 0.945s-0.313 0.602-0.562 0.851l-12.964 13.036c-0.229 0.229-0.498 0.409-0.807 0.542s-0.634 0.199-0.975 0.199h-4.060c-0.35 0-0.644-0.119-0.882-0.357s-0.357-0.532-0.357-0.882zM12.433 19.567h2.995l9.139-9.139-1.508-1.484-1.514-1.475-9.112 9.066v3.032z"></path>
</symbol>
<symbol id="arrow_down" viewBox="0 0 48 32">
<path d="M23.999 28.808c-0.448 0-0.87-0.083-1.267-0.248s-0.779-0.431-1.144-0.796l-19.776-19.776c-0.68-0.68-1.003-1.492-0.97-2.437s0.39-1.757 1.070-2.437 1.492-1.020 2.437-1.020c0.945 0 1.757 0.34 2.437 1.020l17.213 17.313 17.313-17.313c0.68-0.68 1.476-1.003 2.387-0.97s1.707 0.39 2.387 1.070c0.68 0.68 1.020 1.492 1.020 2.437s-0.34 1.757-1.020 2.437l-19.676 19.676c-0.365 0.365-0.747 0.631-1.144 0.796s-0.819 0.248-1.267 0.248z"></path>
</symbol>
<symbol id="eat" viewBox="0 0 29 32">
<path d="M6.882 30.763c-0.352 0-0.645-0.119-0.88-0.357s-0.352-0.532-0.352-0.882v-12.403c-1.451-0.364-2.593-1.052-3.425-2.065s-1.248-2.198-1.248-3.555v-9.060c0-0.34 0.117-0.627 0.351-0.861s0.521-0.352 0.86-0.352 0.625 0.117 0.857 0.352c0.232 0.234 0.348 0.521 0.348 0.861v7.821h2.291v-7.821c0-0.34 0.117-0.627 0.351-0.861s0.521-0.352 0.86-0.352 0.625 0.117 0.857 0.352c0.232 0.234 0.348 0.521 0.348 0.861v7.821h2.327v-7.821c0-0.34 0.117-0.627 0.351-0.861s0.521-0.352 0.86-0.352 0.625 0.117 0.857 0.352c0.232 0.234 0.348 0.521 0.348 0.861v9.043c0 1.363-0.419 2.546-1.257 3.55s-1.991 1.697-3.461 2.078v12.412c0 0.35-0.12 0.644-0.359 0.882s-0.535 0.357-0.886 0.357zM22.308 30.763c-0.351 0-0.644-0.119-0.879-0.357s-0.352-0.532-0.352-0.882v-13.030c-1.388-0.494-2.496-1.412-3.326-2.754s-1.244-2.93-1.244-4.765c0-2.154 0.567-3.983 1.701-5.488s2.504-2.258 4.107-2.258c1.604 0 2.973 0.755 4.107 2.265s1.702 3.337 1.702 5.481c0 1.831-0.415 3.42-1.244 4.767s-1.935 2.277-3.317 2.791v12.992c0 0.35-0.121 0.644-0.364 0.882s-0.54 0.357-0.891 0.357z"></path>
</symbol>
<symbol id="activity" viewBox="0 0 32 32">
<path d="M7.568 9.468l-4.764 4.763c-0.266 0.266-0.573 0.397-0.921 0.394s-0.656-0.138-0.922-0.403c-0.239-0.239-0.363-0.539-0.373-0.901s0.104-0.676 0.343-0.941l1.344-1.375-1.276-1.285c-0.272-0.272-0.408-0.592-0.408-0.96s0.136-0.688 0.408-0.96l2.455-2.455-0.716-0.706c-0.278-0.272-0.418-0.592-0.418-0.96s0.136-0.684 0.408-0.95c0.245-0.252 0.557-0.383 0.935-0.393s0.703 0.107 0.975 0.353l0.746 0.725 2.415-2.415c0.272-0.272 0.592-0.408 0.96-0.408s0.691 0.136 0.969 0.408l1.276 1.276 1.384-1.354c0.265-0.239 0.574-0.358 0.926-0.358s0.657 0.129 0.916 0.388c0.266 0.272 0.398 0.582 0.398 0.931s-0.133 0.656-0.398 0.921l-4.754 4.754 14.964 14.964 4.754-4.754c0.266-0.266 0.574-0.398 0.926-0.398s0.661 0.133 0.926 0.398c0.239 0.239 0.363 0.541 0.373 0.906s-0.104 0.678-0.343 0.936l-1.354 1.384 1.276 1.276c0.272 0.278 0.408 0.601 0.408 0.969s-0.136 0.688-0.408 0.96l-2.495 2.495 0.725 0.706c0.272 0.272 0.408 0.592 0.408 0.96s-0.136 0.684-0.408 0.95c-0.272 0.272-0.59 0.408-0.955 0.408s-0.683-0.139-0.955-0.418l-0.706-0.716-2.415 2.415c-0.272 0.272-0.592 0.408-0.96 0.408s-0.688-0.136-0.96-0.408l-1.285-1.276-1.384 1.354c-0.265 0.239-0.572 0.356-0.921 0.353s-0.653-0.134-0.912-0.393c-0.272-0.266-0.408-0.573-0.408-0.922s0.136-0.659 0.408-0.931l4.754-4.754-14.964-14.964z"></path>
</symbol>
<symbol id="rest" viewBox="0 0 39 32">
<path d="M6.844 31.071c-0.383 0-0.718-0.146-1.004-0.437s-0.429-0.629-0.429-1.013v-1.874h-0.547c-1.351 0-2.5-0.473-3.445-1.418s-1.418-2.094-1.418-3.445v-10.274c0-1.447 0.433-2.561 1.3-3.34s1.893-1.193 3.079-1.24v-3.42c0-1.356 0.429-2.463 1.288-3.322s1.967-1.288 3.322-1.288h19.579c1.355 0 2.456 0.429 3.301 1.288s1.267 1.967 1.267 3.322v3.42c1.186 0.047 2.212 0.46 3.079 1.24s1.3 1.893 1.3 3.34v10.274c0 1.351-0.473 2.499-1.418 3.445s-2.094 1.418-3.445 1.418h-0.547v1.874c0 0.384-0.143 0.722-0.429 1.013s-0.621 0.437-1.005 0.437-0.719-0.146-1.005-0.437c-0.286-0.291-0.429-0.629-0.429-1.013v-1.874h-20.947v1.877c0 0.385-0.145 0.723-0.435 1.012s-0.627 0.435-1.010 0.435zM4.863 24.879h27.789c0.53 0 0.995-0.201 1.395-0.603s0.6-0.866 0.6-1.392v-10.274c0-0.525-0.159-0.947-0.476-1.265s-0.739-0.477-1.267-0.477c-0.528 0-0.95 0.159-1.266 0.477s-0.475 0.74-0.475 1.265v7.521h-24.811v-7.521c0-0.525-0.159-0.947-0.476-1.265s-0.739-0.477-1.267-0.477c-0.527 0-0.949 0.159-1.266 0.477s-0.475 0.74-0.475 1.265v10.274c0 0.526 0.201 0.99 0.603 1.392s0.866 0.603 1.392 0.603zM9.221 17.263h19.074v-4.653c0-0.896 0.204-1.653 0.614-2.27s0.862-1.11 1.36-1.478v-4.252c0-0.53-0.158-0.953-0.473-1.269s-0.735-0.473-1.258-0.473h-19.559c-0.518 0-0.937 0.158-1.254 0.473s-0.477 0.739-0.477 1.269v4.252c0.497 0.368 0.951 0.861 1.36 1.478s0.613 1.374 0.613 2.27v4.653z"></path>
</symbol>
<symbol id="delete" viewBox="0 0 29 32">
<path d="M5.563 30.64c-0.759 0-1.404-0.265-1.936-0.796s-0.798-1.174-0.798-1.93v-22.638h-0.44c-0.385 0-0.708-0.132-0.97-0.395s-0.393-0.588-0.393-0.975c0-0.387 0.131-0.709 0.393-0.968s0.585-0.388 0.97-0.388h6.568c0-0.391 0.131-0.718 0.393-0.98s0.585-0.392 0.97-0.392h8.15c0.384 0 0.708 0.133 0.97 0.398s0.393 0.59 0.393 0.974h6.578c0.385 0 0.708 0.132 0.97 0.395s0.393 0.588 0.393 0.975c0 0.387-0.131 0.709-0.393 0.968s-0.585 0.388-0.97 0.388h-0.44v22.638c0 0.756-0.266 1.399-0.798 1.93s-1.178 0.796-1.936 0.796h-17.673zM23.236 5.277h-17.673v22.638h17.673v-22.638zM14.4 18.525l3.764 3.794c0.28 0.286 0.619 0.433 1.017 0.444s0.741-0.131 1.027-0.424c0.279-0.301 0.419-0.642 0.419-1.024s-0.14-0.715-0.419-1.001l-3.764-3.834 3.764-3.844c0.279-0.279 0.419-0.612 0.419-0.997s-0.14-0.721-0.419-1.007c-0.286-0.279-0.628-0.419-1.027-0.419s-0.738 0.14-1.017 0.419l-3.764 3.804-3.724-3.804c-0.279-0.279-0.617-0.419-1.012-0.419s-0.737 0.14-1.022 0.419c-0.279 0.286-0.419 0.628-0.419 1.027s0.14 0.738 0.419 1.017l3.754 3.804-3.754 3.804c-0.286 0.279-0.427 0.617-0.424 1.012s0.144 0.736 0.424 1.022c0.287 0.279 0.629 0.419 1.024 0.419s0.735-0.14 1.021-0.419l3.714-3.794z"></path>
</symbol>
<symbol id="Google" viewBox="0 0 32 32">
<path d="M32 15.626c0 7.378-3.929 16.373-15.769 16.373-8.898 0.059-16.163-7.102-16.231-16 0.068-8.898 7.333-16.059 16.231-16 3.681 0.014 7.251 1.266 10.133 3.556 0.199 0.163 0.322 0.401 0.338 0.658 0.001 0.26-0.101 0.509-0.284 0.693-1.157 1.058-2.261 2.174-3.307 3.342-0.304 0.335-0.814 0.381-1.173 0.107-1.642-1.216-3.647-1.842-5.689-1.778-5.253 0-9.511 4.258-9.511 9.511s4.258 9.511 9.511 9.511c5.333 0 7.591-2.276 8.764-6.311h-8.124c-0.491 0-0.889-0.398-0.889-0.889v-4.711c0-0.491 0.398-0.889 0.889-0.889h14.222c0.409-0.003 0.755 0.304 0.8 0.711 0.066 0.703 0.096 1.409 0.089 2.116z"></path>
</symbol>
<symbol id="star" viewBox="0 0 37 32">
<path d="M30.718 21.916c0.291-0.286 0.634-0.429 1.028-0.429s0.737 0.143 1.028 0.429l2.572 2.614c0.286 0.288 0.429 0.623 0.429 1.006s-0.143 0.72-0.43 1.009c-0.287 0.289-0.623 0.434-1.008 0.434s-0.722-0.146-1.011-0.439l-2.604-2.572c-0.293-0.288-0.439-0.631-0.439-1.028s0.145-0.738 0.436-1.024zM31.826 1.842c0.286 0.29 0.429 0.632 0.429 1.028s-0.143 0.735-0.429 1.019l-2.572 2.582c-0.293 0.286-0.636 0.429-1.030 0.429s-0.735-0.144-1.022-0.432c-0.293-0.29-0.439-0.633-0.439-1.029s0.147-0.736 0.439-1.020l2.604-2.582c0.29-0.286 0.627-0.429 1.012-0.429s0.722 0.145 1.008 0.435zM5.228 1.842c0.288-0.289 0.63-0.434 1.026-0.434s0.738 0.143 1.024 0.429l2.582 2.614c0.286 0.289 0.429 0.627 0.429 1.012s-0.142 0.722-0.426 1.008c-0.284 0.286-0.62 0.429-1.007 0.429s-0.723-0.143-1.007-0.429l-2.624-2.582c-0.286-0.287-0.429-0.627-0.429-1.021s0.144-0.736 0.432-1.026zM6.341 21.919c0.286 0.288 0.429 0.629 0.429 1.026s-0.143 0.738-0.429 1.024l-2.572 2.572c-0.289 0.293-0.631 0.439-1.028 0.439s-0.738-0.142-1.024-0.427c-0.286-0.285-0.429-0.621-0.429-1.007s0.143-0.724 0.429-1.015l2.614-2.614c0.287-0.286 0.623-0.429 1.006-0.429s0.718 0.144 1.004 0.431zM12.302 26.252l6.226-3.739 6.236 3.782-1.668-7.062 5.498-4.791-7.239-0.634-2.829-6.681-2.816 6.638-7.242 0.644 5.503 4.784-1.669 7.058zM18.526 25.866l-7.63 4.605c-0.258 0.167-0.532 0.237-0.821 0.211s-0.544-0.116-0.765-0.27c-0.22-0.153-0.386-0.358-0.498-0.614s-0.133-0.544-0.063-0.866l2.013-8.695-6.744-5.89c-0.251-0.217-0.403-0.462-0.455-0.736s-0.047-0.538 0.016-0.795c0.063-0.257 0.208-0.474 0.435-0.652s0.5-0.281 0.821-0.309l8.908-0.784 3.443-8.216c0.119-0.293 0.304-0.511 0.555-0.654s0.509-0.215 0.775-0.215 0.526 0.072 0.783 0.215c0.257 0.143 0.446 0.361 0.568 0.654l3.451 8.22 8.911 0.78c0.314 0.028 0.585 0.131 0.811 0.309s0.372 0.395 0.435 0.652c0.063 0.257 0.070 0.522 0.021 0.795s-0.199 0.519-0.451 0.735l-6.744 5.89 2.013 8.705c0.063 0.314 0.036 0.599-0.079 0.853s-0.278 0.466-0.487 0.636c-0.217 0.151-0.47 0.237-0.759 0.259s-0.563-0.048-0.821-0.209l-7.64-4.615z"></path>
</symbol></defs>
</svg>
